Coordinates
version=1
nRows=4
nColumns=107
inDegrees=yes

Units are S.I. units (second, meters, Newtons, ...)
If the header above contains a line with 'inDegrees', this indicates whether rotational values are in degrees (yes) or radians (no).

endheader
time	sternoclavicular_r2	sternoclavicular_r3	unrotscap_r3	unrotscap_r2	acromioclavicular_r2	acromioclavicular_r3	acromioclavicular_r1	unrothum_r1	unrothum_r3	unrothum_r2	elv_angle	shoulder_elv	shoulder1_r2	shoulder_rot	elbow_flexion	pro_sup	deviation	flexion	proximal_distal_r1	proximal_distal_r3	cmc_flexion	cmc_abduction	mp_flexion	ip_flexion	mcp2_flexion	mcp2_abduction	pm2_flexion	md2_flexion	mcp3_flexion	mcp3_abduction	pm3_flexion	md3_flexion	mcp4_flexion	mcp4_abduction	pm4_flexion	md4_flexion	mcp5_flexion	mcp5_abduction	pm5_flexion	md5_flexion	bicpt_tx	bicpt_ty	bicpt_tz	bicpt2_tx	bicpt2_ty	bicpt2_tz	ptpt_tx	ptpt_ty	ptpt_tz	FCUpt_tx	FCUpt_ty	FCUpt_tz	EDCpt_tx	EDCpt_ty	EDCpt_tz	APLpt_tx	APLpt_ty	APLpt_tz	FPLpt_tx	FPLpt_ty	FPLpt_tz	FPLpt2_tx	FPLpt2_ty	FPLpt2_tz	PEC1pt2_tx	PEC1pt2_ty	PEC1pt2_tz	PEC1pt3_tx	PEC1pt3_ty	PEC1pt3_tz	PEC2pt2_tx	PEC2pt2_ty	PEC2pt2_tz	PEC2pt3_tx	PEC2pt3_ty	PEC2pt3_tz	PEC3pt2_tx	PEC3pt2_ty	PEC3pt2_tz	PEC3pt3_tx	PEC3pt3_ty	PEC3pt3_tz	DELT2pt2a_tx	DELT2pt2a_ty	DELT2pt2a_tz	DELT2pt2_tx	DELT2pt2_ty	DELT2pt2_tz	LAT1pt2_tx	LAT1pt2_ty	LAT1pt2_tz	LAT1pt3_tx	LAT1pt3_ty	LAT1pt3_tz	LAT2pt2_tx	LAT2pt2_ty	LAT2pt2_tz	LAT2pt3_tx	LAT2pt3_ty	LAT2pt3_tz	LAT3pt2_tx	LAT3pt2_ty	LAT3pt2_tz	LAT3pt3_tx	LAT3pt3_ty	LAT3pt3_tz
      0.00000000	     -0.32079601	      0.13587405	     -0.13587405	      0.32079601	     -0.06495467	      0.52494077	      0.23595726	     -0.23595726	     -0.52494077	      0.06495467	     99.20906379	     75.95130759	     -1.73152481	    -22.28325816	     28.19934291	     14.90673312	     -0.01607262	     -1.04987792	     -0.02202380	     -0.52493896	     -9.29202301	      7.65464350	    -25.08834514	      5.46636816	     19.93321275	      6.43494163	     16.48896827	    -28.75859246	     60.54916960	      8.74766131	     87.29583967	     67.34986920	     65.77850717	     -8.32953224	     91.22428639	     34.56616618	     13.52133968	    -11.33270443	    -17.71447507	      4.87436002	      0.00083275	     -0.03083208	     -0.00482060	      0.01580726	     -0.01786049	     -0.00970734	      0.00644856	     -0.06561221	     -0.00125082	      0.00535105	     -0.18392767	      0.00002881	     -0.00178880	      0.00045665	      0.00015593	      0.00015111	      0.00006044	      0.00030222	      0.00019342	      0.00058026	      0.00032640	     -0.00115249	      0.00028026	      0.00033631	      0.00248952	      0.00873441	      0.00607611	     -0.00814367	      0.01966297	     -0.01865028	      0.00248952	      0.00873441	      0.00607611	      0.00054854	      0.01822833	     -0.00957831	      0.00393977	      0.00485709	      0.01594763	      0.00000000	      0.00771441	      0.00000000	     -0.00713099	     -0.03295446	     -0.00636052	      0.01505895	     -0.00050308	     -0.00413125	     -0.00088610	      0.01485271	     -0.00607611	      0.00244732	      0.02143516	     -0.01772199	     -0.00594952	      0.01286954	     -0.00544318	     -0.01240539	      0.02717371	     -0.03042274	     -0.02329175	      0.01438857	     -0.00729977	     -0.01544345	      0.03139323	     -0.03801788
      0.03333333	     -0.32097745	      0.13595090	     -0.13595090	      0.32097745	     -0.06499140	      0.52523766	      0.23609071	     -0.23609071	     -0.52523766	      0.06499140	     99.34368886	     75.99426323	     -1.73387446	    -22.34437123	     27.94453443	     14.80409152	     -0.01682654	     -1.04836758	     -0.02306769	     -0.52418379	     -9.28545144	      7.56052847	    -25.09006454	      5.46661768	     20.00847691	      6.33637520	     16.53225065	    -28.74999412	     60.47279772	      8.70528683	     87.26826276	     67.37055075	     65.84173091	     -8.28670930	     91.26035937	     34.58527320	     13.61866312	    -11.27655221	    -17.68092240	      4.88204799	      0.00082432	     -0.03080287	     -0.00481590	      0.01580117	     -0.01779127	     -0.00971468	      0.00645614	     -0.06560730	     -0.00124255	      0.00534151	     -0.18392907	      0.00003148	     -0.00177649	      0.00045327	      0.00015527	      0.00015220	      0.00006088	      0.00030441	      0.00019482	      0.00058447	      0.00032876	     -0.00115127	      0.00028004	      0.00033604	      0.00249093	      0.00873935	      0.00607955	     -0.00814828	      0.01967409	     -0.01866083	      0.00249093	      0.00873935	      0.00607955	      0.00054885	      0.01823864	     -0.00958373	      0.00394140	      0.00485984	      0.01595162	      0.00000000	      0.00772320	      0.00000000	     -0.00713502	     -0.03297309	     -0.00636781	      0.01509233	     -0.00050501	     -0.00415464	     -0.00088660	      0.01486111	     -0.00607955	      0.00244871	      0.02144729	     -0.01773201	     -0.00595289	      0.01287682	     -0.00544626	     -0.01241241	      0.02718908	     -0.03043995	     -0.02330493	      0.01439670	     -0.00730390	     -0.01545218	      0.03141099	     -0.03803938
      0.06666667	     -0.32111186	      0.13600783	     -0.13600783	      0.32111186	     -0.06501862	      0.52545762	      0.23618958	     -0.23618958	     -0.52545762	      0.06501862	     99.32810959	     76.02608776	     -1.73360255	    -22.24628639	     27.87075475	     14.76405304	     -0.02306053	     -1.04803096	     -0.03173159	     -0.52401548	     -9.21484311	      6.03797986	    -25.01637253	      4.90491264	     19.48448547	      5.86778372	     18.36083303	    -32.37055877	     59.70801695	      8.31905645	     87.08347302	     69.48447268	     66.27178005	     -7.80436704	     90.95343527	     38.89976162	     14.21679969	    -10.95203125	    -19.26851606	      4.88648835	      0.00082188	     -0.03079441	     -0.00481454	      0.01579882	     -0.01777123	     -0.00971757	      0.00645910	     -0.06560539	     -0.00123932	      0.00533779	     -0.18392962	      0.00003252	     -0.00177168	      0.00045195	      0.00015502	      0.00015245	      0.00006098	      0.00030490	      0.00019514	      0.00058541	      0.00032929	     -0.00113370	      0.00027755	      0.00033305	      0.00249197	      0.00874301	      0.00608209	     -0.00815169	      0.01968233	     -0.01866864	      0.00249197	      0.00874301	      0.00608209	      0.00054908	      0.01824628	     -0.00958774	      0.00394260	      0.00486188	      0.01595458	      0.00000000	      0.00772971	      0.00000000	     -0.00713801	     -0.03298690	     -0.00637322	      0.01503891	     -0.00050190	     -0.00411693	     -0.00088697	      0.01486734	     -0.00608209	      0.00244973	      0.02145627	     -0.01773944	     -0.00595538	      0.01288221	     -0.00544854	     -0.01241760	      0.02720047	     -0.03045270	     -0.02331469	      0.01440273	     -0.00730696	     -0.01545865	      0.03142414	     -0.03805531
      0.10000000	     -0.32107890	      0.13599387	     -0.13599387	      0.32107890	     -0.06501195	      0.52540369	      0.23616534	     -0.23616534	     -0.52540369	      0.06501195	     99.33143222	     76.01828472	     -1.73366054	    -22.24610053	     27.86439396	     14.76180682	     -0.02307403	     -1.04800573	     -0.03175048	     -0.52400287	     -9.21397938	      6.03687971	    -25.01593416	      4.90504338	     19.48577835	      5.86628628	     18.36125881	    -32.37031920	     59.70597744	      8.31862942	     87.08281952	     69.48447448	     66.27225423	     -7.80402095	     90.95349569	     38.89990159	     14.21934934	    -10.95167940	    -19.26742821	      4.88657449	      0.00082167	     -0.03079369	     -0.00481442	      0.01579865	     -0.01776950	     -0.00971770	      0.00645927	     -0.06560528	     -0.00123914	      0.00533758	     -0.18392965	      0.00003259	     -0.00177141	      0.00045188	      0.00015499	      0.00015247	      0.00006099	      0.00030494	      0.00019516	      0.00058548	      0.00032933	     -0.00113351	      0.00027752	      0.00033302	      0.00249171	      0.00874211	      0.00608147	     -0.00815086	      0.01968031	     -0.01866673	      0.00249171	      0.00874211	      0.00608147	      0.00054902	      0.01824440	     -0.00958676	      0.00394231	      0.00486138	      0.01595386	      0.00000000	      0.00772812	      0.00000000	     -0.00713728	     -0.03298352	     -0.00637190	      0.01503863	     -0.00050190	     -0.00411706	     -0.00088688	      0.01486581	     -0.00608147	      0.00244948	      0.02145407	     -0.01773761	     -0.00595477	      0.01288089	     -0.00544798	     -0.01241633	      0.02719768	     -0.03044957	     -0.02331229	      0.01440125	     -0.00730621	     -0.01545706	      0.03142092	     -0.03805141
